<svg width="100" height="100" viewBox="0 0 100 100" fill="none" xmlns="http://www.w3.org/2000/svg">
<path d="M50 0C22.3875 0 0 22.3875 0 50C0 77.6125 22.3875 100 50 100C77.6125 100 100 77.6125 100 50C100 22.3875 77.6125 0 50 0ZM64.5833 33.3333C68.0333 33.3333 70.8333 36.1292 70.8333 39.5833C70.8333 43.0375 68.0333 45.8333 64.5833 45.8333C61.1333 45.8333 58.3333 43.0375 58.3333 39.5833C58.3333 36.1292 61.1333 33.3333 64.5833 33.3333ZM35.4167 33.3333C38.8667 33.3333 41.6667 36.1292 41.6667 39.5833C41.6667 43.0375 38.8667 45.8333 35.4167 45.8333C31.9667 45.8333 29.1667 43.0375 29.1667 39.5833C29.1667 36.1292 31.9667 33.3333 35.4167 33.3333ZM69.2583 72.4042C63.9 68.9917 57.875 66.9542 50 66.9542C42.125 66.9542 36.1 68.9917 30.7417 72.4042L28.7792 69.9875C32.7292 65.15 40.2833 58.3333 50 58.3333C59.7167 58.3333 67.2708 65.15 71.2208 69.9875L69.2583 72.4042Z" fill="#FFF627"/>
</svg>
