<svg width="200" height="200" viewBox="0 0 200 200" fill="none" xmlns="http://www.w3.org/2000/svg">
<path d="M19.9667 100H0V82H19.9667V100ZM83.3333 41.878V10H66.6667V41.878H83.3333ZM43.3917 49.762L25.425 30.358L13.6417 43.084L31.6083 62.488L43.3917 49.762ZM122.233 28.198L104.608 47.224L116.392 59.95L134.017 40.924L122.233 28.198ZM24.7333 126.361L6.41667 143.632L17.275 157.285L35.5917 140.014L24.7333 126.361ZM200 151.498C200 172.756 183.75 190 163.717 190H77.95C57.9167 190 41.6667 172.756 41.6667 151.498C41.6667 144.568 43.425 138.088 46.45 132.481C38.4167 124.318 33.3333 112.861 33.3333 100C33.3333 75.142 51.9833 55 75 55C86.075 55 96.025 59.752 103.45 67.384C108.858 65.224 114.7 64 120.833 64C147.258 64 168.775 85.987 170.175 113.644C187.125 116.875 200 132.589 200 151.498ZM50 100C50 107.74 53.0833 114.652 57.9583 119.548C62 116.704 66.5333 114.589 71.4917 113.644C72.225 99.154 78.5167 86.266 88.1083 77.23C84.275 74.638 79.85 73 75 73C61.2167 73 50 85.114 50 100ZM183.333 151.498C183.333 132.814 166.842 127.936 154.258 128.89C156.075 115.939 152.258 82 120.833 82C88.5417 82 86.9833 116.686 87.4083 128.881C75.8667 128.125 58.3333 132.436 58.3333 151.498C58.3333 162.802 67.1333 172 77.95 172H163.708C174.533 172 183.333 162.802 183.333 151.498Z" fill="#9DFFF9"/>
</svg>
