<svg width="102" height="102" viewBox="0 0 102 102" fill="none" xmlns="http://www.w3.org/2000/svg">
<path d="M51 0C22.8353 0 0 22.8353 0 51C0 79.1647 22.8353 102 51 102C79.1647 102 102 79.1647 102 51C102 22.8353 79.1647 0 51 0ZM65.875 34C69.394 34 72.25 36.8518 72.25 40.375C72.25 43.8982 69.394 46.75 65.875 46.75C62.356 46.75 59.5 43.8982 59.5 40.375C59.5 36.8518 62.356 34 65.875 34ZM36.125 34C39.644 34 42.5 36.8518 42.5 40.375C42.5 43.8982 39.644 46.75 36.125 46.75C32.606 46.75 29.75 43.8982 29.75 40.375C29.75 36.8518 32.606 34 36.125 34ZM51.0043 76.5C39.1 76.5 30.2897 68.6545 25.5 61.3445L27.5953 59.2492C34.0212 64.328 41.0848 67.456 51.0043 67.456C60.9195 67.456 67.9788 64.328 74.4047 59.2492L76.5 61.3445C71.7103 68.6545 62.9043 76.5 51.0043 76.5V76.5Z" fill="#FFF627"/>
</svg>
