<svg width="200" height="200" viewBox="0 0 200 200" fill="none" xmlns="http://www.w3.org/2000/svg">
<path d="M176.6 51.8417L152.592 75.85C149.167 71.45 145.217 67.5 140.808 64.0667L164.817 40.0583L176.6 51.8417ZM108.333 50.575V16.6667H91.6667V50.575C94.4 50.2333 97.1667 50 100 50C102.833 50 105.6 50.2333 108.333 50.575ZM166.092 108.333C166.433 111.067 166.667 113.833 166.667 116.667C166.667 119.5 166.433 122.267 166.092 125H200V108.333H166.092ZM150 116.667C150 119.517 149.708 122.283 149.25 125H50.75C50.2917 122.283 50 119.517 50 116.667C50 89.05 72.3833 66.6667 100 66.6667C127.617 66.6667 150 89.05 150 116.667ZM132.15 108.333C128.417 93.9917 115.475 83.3333 100 83.3333C84.5167 83.3333 71.5833 93.9917 67.8583 108.333H132.15ZM59.2 64.0667L35.1917 40.0583L23.4 51.8417L47.4083 75.85C50.8333 71.4417 54.7833 67.4917 59.2 64.0667V64.0667ZM0 108.333V125H33.9083C33.5667 122.267 33.3333 119.5 33.3333 116.667C33.3333 113.833 33.5667 111.067 33.9083 108.333H0ZM183.333 158.333H16.6667V141.667H183.333V158.333ZM158.333 183.333H41.6667V166.667H158.333V183.333Z" fill="#F6C0FF"/>
</svg>
