<svg width="124" height="124" viewBox="0 0 124 124" fill="none" xmlns="http://www.w3.org/2000/svg">
<g clip-path="url(#clip0)">
<path d="M56.8333 15.5C48.4995 15.5 40.703 17.7578 33.9347 21.6225L42.4597 34.255L7.83267 32.302L19.3337 0L28.1325 13.0303C36.5697 8.0755 46.345 5.16667 56.8333 5.16667C79.5977 5.16667 99.1845 18.5897 108.257 37.9233L99.7735 44.2008C92.7727 27.3678 76.167 15.5 56.8333 15.5V15.5ZM124 80.011L111.729 48.1998L84.3097 68.479L101.82 73.563C96.7458 93.2532 79.1068 107.927 57.9648 108.438L62.5683 118.539C86.3815 116.157 105.829 99.0398 111.76 76.4512L124 80.011V80.011ZM30.3955 100.192C18.2848 91.7962 10.3333 77.8203 10.3333 62C10.3333 55.211 11.8317 48.7733 14.4615 42.9505L3.57017 42.3305C1.302 48.4685 0 55.0767 0 62C0 81.7935 10.1525 99.1587 25.5027 109.316L17.6287 124L51.2947 118.606L37.1638 87.575L30.3955 100.192Z" fill="white"/>
</g>
<defs>
<clipPath id="clip0">
<rect width="124" height="124" fill="white"/>
</clipPath>
</defs>
</svg>
