<svg width="200" height="200" viewBox="0 0 200 200" fill="none" xmlns="http://www.w3.org/2000/svg">
<path d="M170.183 62.6333C168.7 35.6917 144.925 14.4833 116.583 16.8667C107.525 6.54167 94.1417 0 79.1667 0C52.7333 0 31.2167 20.3583 29.8167 45.9667C12.875 48.9583 0 63.5083 0 81.0167C0 100.7 16.2417 116.667 36.2833 116.667H47.3333C53.7583 126.65 65.0333 133.333 77.95 133.333H163.708C183.758 133.333 200 117.367 200 97.6833C200 80.175 187.125 65.625 170.183 62.6333V62.6333ZM41.8917 100H36.2833C25.475 100 16.6667 91.4833 16.6667 81.0167C16.6667 63.3667 34.2 59.375 45.7333 60.0833C45.3167 48.7833 46.875 16.6667 79.1667 16.6667C87.225 16.6667 93.45 18.75 98.25 22.0333C83.0583 29.7167 72.45 44.9167 71.4833 62.6333C54.6333 65.6167 40.675 80.3583 41.8917 100V100ZM163.708 116.667H77.95C67.1417 116.667 58.3333 108.15 58.3333 97.6833C58.3333 80.0333 75.8667 76.0417 87.4 76.75C86.9833 65.45 88.5417 33.3333 120.833 33.3333C152.258 33.3333 156.075 64.7583 154.267 76.7417C166.842 75.8667 183.333 80.3833 183.333 97.6833C183.333 108.15 174.525 116.667 163.708 116.667ZM57.2417 172.608L45.4917 160.858L64.6833 141.667L76.4333 153.417L57.2417 172.608V172.608ZM29.7417 200L17.9917 188.358L37.1833 169.167L48.9333 180.917L29.7417 200ZM98.5167 172.608L86.7667 160.858L105.958 141.667L117.708 153.417L98.5167 172.608ZM71.0167 200L59.2667 188.358L78.4583 169.167L90.2083 180.917L71.0167 200ZM139.142 172.608L127.392 160.858L146.583 141.667L158.333 153.417L139.142 172.608ZM111.633 200L99.8833 188.358L119.075 169.167L130.825 180.917L111.633 200V200Z" fill="#A3FFAC"/>
</svg>
