<svg width="45" height="45" viewBox="0 0 45 45" fill="none" xmlns="http://www.w3.org/2000/svg">
<path fill-rule="evenodd" clip-rule="evenodd" d="M39.6975 45L25.8469 31.1494C23.2444 32.7881 20.1769 33.75 16.875 33.75C7.55437 33.75 0 26.1956 0 16.875C0 7.55437 7.55437 0 16.875 0C26.1956 0 33.75 7.55437 33.75 16.875C33.75 20.1769 32.7863 23.2463 31.1494 25.8469L45 39.6975L39.6975 45ZM16.875 30C24.1106 30 30 24.1125 30 16.875C30 9.6375 24.1106 3.75 16.875 3.75C9.63937 3.75 3.75 9.6375 3.75 16.875C3.75 24.1125 9.63937 30 16.875 30ZM11.25 15C12.285 15 13.125 15.84 13.125 16.875C13.125 17.91 12.285 18.75 11.25 18.75C10.215 18.75 9.375 17.91 9.375 16.875C9.375 15.84 10.215 15 11.25 15ZM16.875 15C17.91 15 18.75 15.84 18.75 16.875C18.75 17.91 17.91 18.75 16.875 18.75C15.84 18.75 15 17.91 15 16.875C15 15.84 15.84 15 16.875 15ZM22.5 15C23.535 15 24.375 15.84 24.375 16.875C24.375 17.91 23.535 18.75 22.5 18.75C21.465 18.75 20.625 17.91 20.625 16.875C20.625 15.84 21.465 15 22.5 15Z" fill="white"/>
</svg>
