<svg width="200" height="200" viewBox="0 0 208 208" fill="none" xmlns="http://www.w3.org/2000/svg">
<g filter="url(#filter0_d)">
<path d="M188.067 109.383L204 100L188.067 90.6167C179.558 85.6 176.633 74.7 181.5 66.1L190.608 50L172.108 49.8333C162.233 49.75 154.25 41.7667 154.167 31.8917L154 13.4L137.9 22.5083C129.308 27.3667 118.4 24.45 113.392 15.9417L104 0L94.6083 15.9417C89.5917 24.45 78.6917 27.375 70.1 22.5083L54 13.4L53.8333 31.8917C53.75 41.7667 45.7667 49.75 35.8917 49.8333L17.3917 50L26.5 66.1C31.3667 74.7 28.4417 85.6 19.9333 90.6167L4 100L19.9333 109.383C28.4417 114.4 31.3667 125.3 26.5 133.9L17.3917 150L35.8917 150.167C45.7667 150.25 53.75 158.233 53.8333 168.108L54 186.6L70.1 177.492C78.6917 172.633 89.6 175.55 94.6083 184.058L104 200L113.392 184.058C118.408 175.55 129.308 172.625 137.9 177.492L154 186.6L154.167 168.108C154.258 158.233 162.242 150.25 172.108 150.167L190.608 150L181.5 133.9C176.633 125.308 179.55 114.4 188.067 109.383V109.383ZM103.758 166.667C67 166.667 37.0917 136.758 37.0917 100C37.0917 63.2417 66.9917 33.3333 103.758 33.3333C140.525 33.3333 170.425 63.2417 170.425 100C170.425 136.758 140.517 166.667 103.758 166.667ZM154 100C154 127.608 131.608 150 104 150C76.3917 150 54 127.608 54 100C54 72.3917 76.3917 50 104 50C131.608 50 154 72.3917 154 100Z" fill="#E3F323"/>
</g>
<defs>
<filter id="filter0_d" x="0" y="0" width="200" height="200" filterUnits="userSpaceOnUse" color-interpolation-filters="sRGB">
<feFlood flood-opacity="0" result="BackgroundImageFix"/>
<feColorMatrix in="SourceAlpha" type="matrix" values="0 0 0 0 0 0 0 0 0 0 0 0 0 0 0 0 0 0 127 0"/>
<feOffset dy="4"/>
<feGaussianBlur stdDeviation="2"/>
<feColorMatrix type="matrix" values="0 0 0 0 0 0 0 0 0 0 0 0 0 0 0 0 0 0 0.25 0"/>
<feBlend mode="normal" in2="BackgroundImageFix" result="effect1_dropShadow"/>
<feBlend mode="normal" in="SourceGraphic" in2="effect1_dropShadow" result="shape"/>
</filter>
</defs>
</svg>
